<svg xmlns="http://www.w3.org/2000/svg" viewBox="0 0 157.9 134.3">
	<path fill="#000" d="M28 96.3v-4.1l7.2-1.5V45L28 43.5v-4.2h26.2c8.7 0 15.5 2.3 20.4 6.9 5 4.5 7.4 11.4 7.4 20.5 0 6.2-1.1 11.6-3.5 16A23.5 23.5 0 0 1 68.2 93a36.4 36.4 0 0 1-16.7 3.4H28Zm23.3-5.2a30 30 0 0 0 9.4-1.3c2.5-.9 4.6-2.3 6.2-4.2s2.8-4.5 3.5-7.6a49.1 49.1 0 0 0-.2-21.6c-.8-2.8-2.1-5-3.8-6.7A15 15 0 0 0 60 46a29 29 0 0 0-8.5-1.2 54 54 0 0 0-7.3.6v45a44.7 44.7 0 0 0 7 .6ZM90 96.3v-4.1l7.3-1.5V44.9L90 43.4v-4.1h22.6c4.6 0 8.5.5 11.7 1.5a15 15 0 0 1 7.6 4.7 14 14 0 0 1 2.7 9.1c0 4.2-1 7.7-2.8 10.4a16.9 16.9 0 0 1-7.4 6.3 26.4 26.4 0 0 1-13.8 2l-.5-3.7c3.4-.1 6.1-.7 8.3-1.6 2.2-1 3.8-2.4 4.9-4.4 1-2 1.6-4.5 1.6-7.6 0-3.8-1.1-6.7-3.3-8.5a13.7 13.7 0 0 0-9-2.7 46 46 0 0 0-6.3.4v45.2l9 1.6v4.3H90Z" />
	<path fill="#000" d="M82.9 0c.1 4.3 1.1 7.5 3 9.6 2 2.2 4.5 3.2 7.6 3.2 1.6 0 4.7-.5 9.4-1.6 4.7-1 9-1.5 12.6-1.5 9.2 0 16.1 2.6 20.7 7.7 4.6 5.2 7 13 7.2 23.5v1.7h-5v-1c0-6.5-1.8-11.5-5.1-15.2-3.4-3.6-8.9-5.4-16.6-5.4-3 0-7 .4-11.5 1.3a59 59 0 0 1-9.8 1.3c-3.8 0-6.9-1-9.3-3.3a20.3 20.3 0 0 1-5.4-8h-1.2c-1.1 3.2-2.9 5.8-5.3 8a13.2 13.2 0 0 1-9.3 3.3c-2 0-5.2-.4-9.8-1.3-4.6-.9-8.4-1.3-11.5-1.3-8.1 0-13.9 1.8-17.2 5.4-3.4 3.7-5 8.7-5 15.2v1h-5v-1.8c0-10.4 2.5-18.2 7-23.4 4.7-5.1 11.8-7.7 21.4-7.7 3.6 0 7.8.5 12.6 1.5 4.7 1 7.8 1.6 9.4 1.6 3 0 5.6-1 7.5-3.2 2-2 3-5.3 3.1-9.5H83Z" />
	<path fill="#000" d="M0 0h43.1v7.3H10.4v119.3H43v7.4H0V0ZM114.7 126.6h32.9V7.3h-32.9V0H158v134h-43.2v-7.4Z" />
	<path fill="#000" d="M76.8 134.3c-.1-4.2-1.2-7.4-3-9.5a9.7 9.7 0 0 0-7.6-3.2c-1.6 0-4.7.5-9.4 1.6-4.8 1-9 1.5-12.6 1.5-9.2 0-16.1-2.6-20.7-7.7-4.6-5.2-7-13-7.2-23.4v-1.8h5v1c0 6.5 1.7 11.5 5 15.2 3.5 3.6 9 5.4 16.7 5.4 3 0 6.9-.4 11.5-1.3a59 59 0 0 1 9.8-1.3c3.8 0 6.9 1 9.3 3.3 2.4 2.2 4.2 4.9 5.3 8h1.2c1.2-3.2 3-5.8 5.4-8 2.4-2.2 5.5-3.3 9.3-3.3 2 0 5.2.4 9.8 1.3 4.6.9 8.4 1.3 11.5 1.3 8.1 0 13.8-1.8 17.2-5.4 3.3-3.7 5-8.7 5-15.2v-1h5v1.8c-.1 10.4-2.5 18.2-7 23.4-4.7 5.2-11.8 7.7-21.4 7.7-3.7 0-7.9-.5-12.6-1.5-4.7-1-7.8-1.6-9.4-1.6-3.1 0-5.6 1-7.5 3.2-2 2-3 5.3-3.1 9.5h-5.5Z" />
</svg>
